PathFileType	4	(X/Y/Z)	32_2_39_p0_0-267_filt_butterworth.trc
DataRate	CameraRate	NumFrames	NumMarkers	Units	OrigDataRate	OrigDataStartFrame	OrigNumFrames
60.0	60.0	6	27	m	60.0	0	267
Frame#	Time	RHip			RKnee			RAnkle			RBigToe			RSmallToe			RHeel			LHip			LKnee			LAnkle			LBigToe			LSmallToe			LHeel			Neck			Head			Nose			RShoulder			RElbow			RWrist			RThumb			RIndex			RPinky			LShoulder			LElbow			LWrist			LThumb			LIndex			LPinky			
		X1	Y1	Z1	X2	Y2	Z2	X3	Y3	Z3	X4	Y4	Z4	X5	Y5	Z5	X6	Y6	Z6	X7	Y7	Z7	X8	Y8	Z8	X9	Y9	Z9	X10	Y10	Z10	X11	Y11	Z11	X12	Y12	Z12	X13	Y13	Z13	X14	Y14	Z14	X15	Y15	Z15	X16	Y16	Z16	X17	Y17	Z17	X18	Y18	Z18	X19	Y19	Z19	X20	Y20	Z20	X21	Y21	Z21	X22	Y22	Z22	X23	Y23	Z23	X24	Y24	Z24	X25	Y25	Z25	X26	Y26	Z26	X27	Y27	Z27	
0	0.0	0.3439936391382458	0.41491475977711123	1.0707972985701693	0.3281739659453127	0.4764319747145833	1.4886904459001773	0.32240305416529186	0.5082672544373015	1.9179151511200128	0.31478712322498936	0.3281747360041608	1.9195103504985889	0.36740645363664626	0.3417094897970263	1.9206648221190723	0.3050281340619942	0.5936487025310908	2.019490357084152	0.14523865862734153	0.4438208534380753	1.0791814303575495	0.13599956448232642	0.489318620852686	1.4989030931841754	0.151731254764803	0.5277062206942469	1.9471676370106994	0.15187974744226662	0.32601709692618414	1.9097565073169434	0.09844196672450899	0.3955036750970952	1.9370849514582904	0.1609172353418069	0.5820752113100005	2.00311927343378	0.25050896490634367	0.44483639944823666	0.4927406970664447	0.2483779816961319	0.4492675878442439	0.25634835258320804	0.24711110967658445	0.34628604879886665	0.36162067699156664	0.40004372648215264	0.4206130901921484	0.5752217392999851	0.41181877997342603	0.3553567445960306	0.8145782398536268	0.2879200763890327	0.30152500992735365	1.0099617589439098	0.183972777753806	0.400612243145294	1.1345833783073622	0.1929370396073843	0.3915245830828338	1.1346094948234482	0.22112362955458228	0.32629902371166747	1.1067001412159554	0.08423365612566387	0.4313338892094636	0.5650211368115192	0.08772579672637651	0.39098353887822795	0.8059138472975192	0.20442406373450608	0.2534559394253545	0.9750710846521566	0.26167448283216205	0.35465956888785666	1.0969033894157774	0.2570712830467486	0.36133915764467084	1.1369677138391023	0.22536718852258966	0.34249763622108403	1.126387377367589
1	0.0166666666666666	0.3431714905454516	0.41116792184855255	1.0670312324967364	0.32815665110906056	0.47311929528544555	1.4869766620359985	0.3254814531280288	0.5059709742428103	1.9193063952946758	0.31497338775679234	0.3282584999146287	1.9194449953345596	0.36744012848684765	0.3416489529214335	1.9204939802419876	0.30506460347732245	0.5918444516908473	2.0220694178956085	0.1452808652718684	0.44330073408423815	1.0738454486220026	0.1355825514852893	0.48834637922205226	1.4956134222496689	0.15205110980386105	0.527453316813031	1.9460952360358164	0.15361121708591857	0.33280005530535145	1.9165348941084512	0.09927427709597748	0.3994970115682	1.9433719616849852	0.16213955563490481	0.5784158072102142	2.0006365539895676	0.2505402169198045	0.4448738158821213	0.4926161898266813	0.24738941915285426	0.4454688488007854	0.25621594913728174	0.24719980427683846	0.3466008968965654	0.36285183724243225	0.4013612683639991	0.4161144910823243	0.5742877300319031	0.4118828979708865	0.35528950166694	0.8145455107867348	0.28443507244787597	0.29674130852983444	1.0083620007549214	0.19043128060182948	0.3886079955675885	1.1303188718078219	0.19442306569640144	0.3878438097962973	1.13359971370835	0.22089872096788915	0.32641064187993557	1.1069379619876947	0.08424985999710029	0.4312448451766526	0.5650526393124697	0.0876929162606656	0.3912209077876148	0.8049856449852022	0.20504712227806438	0.2566599247413855	0.9758747681534429	0.2603787748413532	0.34864905327235735	1.0957827992122766	0.26234068271048894	0.3572420662460972	1.135224454626676	0.225225166856206	0.3430159492877753	1.126258735261193
2	0.0333333333333333	0.34250728402045494	0.40836437584509366	1.0645929450793057	0.328450974029248	0.4713181637133951	1.4860461549355168	0.32799888907149743	0.5043139809331084	1.9199111767660482	0.3149992051929509	0.3282575195463663	1.9193535801199744	0.36745728865731964	0.3416042594680777	1.920392073559826	0.30506640318202555	0.5906807662051605	2.023622385679767	0.14529283713353416	0.4429875658412422	1.0705744707995883	0.13534258033445432	0.4877871931947644	1.4936634639275286	0.1521115665010774	0.5273014996959879	1.946044140553783	0.1545823504191065	0.33684466733437735	1.9205739365685988	0.09970599924363896	0.4013844614959191	1.9466925402128683	0.16274699042522317	0.576641028038375	1.9994324921289188	0.2505601373464793	0.44488839991556894	0.4925463232265263	0.24646182030152325	0.4418938721094908	0.256083790988069	0.2472722211759986	0.34687589319212386	0.36401010570449865	0.40261499334185136	0.41182518068391283	0.5734358809185915	0.4119362792271732	0.35529433340875866	0.8145213351669315	0.2821946585486693	0.293396304993192	1.0072671383336949	0.19529986339797478	0.38116269955915194	1.1274951699816407	0.1951121584425413	0.38621041544159623	1.1331993741862167	0.22075246255611658	0.32657752985371696	1.1072072114909497	0.08426196421806142	0.4311660492947861	0.5650904950855206	0.08767029997672607	0.39132816439842893	0.8045892401955957	0.20527659527534844	0.2581848830169604	0.9762033058393758	0.2595709608506275	0.3452323159733408	1.0951940199328318	0.26550699707315023	0.3549559991894255	1.1341742436003501	0.22509530977750092	0.3434431661936559	1.1265737672034024
3	0.05	0.3418862293857309	0.40619611794676785	1.063459783603356	0.32862273713546447	0.46969706223311725	1.4852590055243775	0.32918011308672496	0.5036343514231058	1.919882114338713	0.3145590874701304	0.32794752917383047	1.919064762989189	0.3674498927250368	0.34157795436741245	1.9203723660472949	0.3050294557390909	0.5901938014323799	2.0240576830294374	0.14526444994999174	0.44289188278730396	1.0696461876287147	0.13528899626345514	0.4876711862823227	1.493154074200931	0.15198488913290983	0.5272440166684059	1.946688338537601	0.1547349531108303	0.3379312229491649	1.9216522255707522	0.09958842947191868	0.40061955202640165	1.946690130250632	0.16284617901035334	0.5764025224026768	1.9992711375771828	0.2505708246808419	0.44488089662884045	0.49254097168816413	0.24582667098948638	0.4394382570856558	0.25601744101311813	0.2473044729247076	0.3470340619517525	0.3648018791469714	0.4034811858389103	0.40885634079335076	0.5728788119344685	0.4119671260364307	0.3553378549149671	0.8144783875320725	0.2811980460933514	0.29125134576471423	1.0066017633565192	0.19736232504861084	0.380292175589511	1.1268345612358468	0.19474646130957954	0.3872972948247679	1.133710184216934	0.22070595672753718	0.3267479556634521	1.1074431390630588	0.08426939501326997	0.4311241293549332	0.5651120236054485	0.08763986595521761	0.39130166192698523	0.8048581266456571	0.2050024938781062	0.25751046119138743	0.9759042172740229	0.25930313244701786	0.34444710650419513	1.0951094803604666	0.26633679344862515	0.3544771594291564	1.1338841437127314	0.22503510614276556	0.3436995210201156	1.1271015792902574
4	0.0666666666666666	0.3413533136271954	0.4045617768481985	1.0630337529484533	0.3284580720335503	0.4673858973138609	1.484155975746679	0.3286903215100353	0.5037455336058723	1.919726010007385	0.3134247858173633	0.3271568968866426	1.9184327840823125	0.3674245306775089	0.3415752944011057	1.920391164172768	0.30497542861833227	0.5900208291585657	2.023933883017919	0.1452088627321014	0.4428969184279995	1.0702247705132693	0.1353211579373213	0.4877570010693967	1.4933301002026125	0.15187043572693668	0.527250778037356	1.94722711228222	0.15454698395152816	0.3375786230324299	1.9212869423566552	0.09910883023614069	0.39881648245476414	1.945780638163288	0.1633215604431661	0.5749203615709514	1.9982750046265096	0.25057920492795727	0.4448627166008251	0.49257168404845386	0.24558641389688315	0.43850289036096657	0.2560545034115131	0.24729129609133055	0.3470554615500844	0.3650931562887186	0.4038058426336036	0.4077396150895361	0.5726923863266823	0.4119741179623686	0.355332613734832	0.8143872795948927	0.2808628650609546	0.2898330119810653	1.0061921882410714	0.19668655048830472	0.3840195950636627	1.1280270072923626	0.1939354605471341	0.3895072317993732	1.1347097615083421	0.22072899163451393	0.3268299205187169	1.1075485434071946	0.08427725908884226	0.4311407424430926	0.5650827094610038	0.08759991998354585	0.39123981684421216	0.8053672310174413	0.20454753007699678	0.2558415647230598	0.9753459372167376	0.2593489233142866	0.34469964321229457	1.0951933512691014	0.26586318893958494	0.35468726543273094	1.1340236791910088	0.22507873294862854	0.34374062850241827	1.1271652944772867
5	0.0833333333333333	0.3410865050118129	0.40380336912015324	1.0629616972657552	0.3282453092805034	0.4655897072464189	1.483310341298292	0.32719166939759614	0.5038932264489054	1.9194267517866688	0.31191249288380085	0.3261335968640762	1.917643343057344	0.3674153145543984	0.34159399872340634	1.920303366829299	0.304922630971831	0.5898791419376063	2.023725403944939	0.145169085761574	0.44294576900701144	1.0717397847608392	0.13536044785354098	0.4878428365595625	1.493563644989496	0.15183583157083128	0.5273092577691453	1.9474299533913053	0.15443207888560614	0.33706560513071243	1.920760450525696	0.09860289772859422	0.39770790073740225	1.9459032598877157	0.16451404871373385	0.5711584060488076	1.995737872550955	0.25058575587759035	0.4448414190059398	0.4926017509924725	0.245586911305117	0.43848768383034764	0.2561525313011665	0.24725565228263077	0.3470203091517896	0.36507978403287394	0.40380099715475404	0.40775054329237154	0.5727168247349492	0.41195889763187943	0.35524509213395666	0.8143408128039069	0.2807888510434332	0.2891714887421199	1.0060112281502183	0.19474072998058845	0.3883099954898223	1.129901495009444	0.19340243864777584	0.39097518423495825	1.1355019033125022	0.22078091060878266	0.32680599119167125	1.107511866844549	0.08429426893932905	0.43120127467900177	0.5650090783470235	0.08757089962436015	0.39121816325348213	0.805673005592069	0.20426044820879552	0.2545605599925709	0.9749542777853439	0.25953160484663934	0.34482535511190293	1.0952566275593631	0.2650498641084762	0.35482132143469614	1.1343539937701765	0.2251697052555944	0.3435893351216665	1.1265916672989862
